<svg xmlns="http://www.w3.org/2000/svg" viewBox="0 0 292.85 256.55"><defs><style>.cls-1{fill:#6a41cc;}.cls-2{fill:#58f4c2;}.cls-3{fill:#22211d;}.cls-4{fill:#3f16bf;}.cls-5{fill:#301d7f;}</style></defs><title>logo-full</title><g id="OBJECTS"><path class="cls-1" d="M245.5,101.07c0,54.36-44.72,99.08-99.07,99.08s-99.08-44.72-99.08-99.08S92.07,2,146.43,2a99.15,99.15,0,0,1,56.83,17.91l-14,19.92c-29.93-20.88-72-17.15-97.51,10.23-28,30-26.34,77.67,3.63,105.63L106,144.43l13.12-14.07a40.25,40.25,0,0,0,28.46,10.49,39.06,39.06,0,0,0,7.14-.91l4.05,19.16,3.2,15.09A74.43,74.43,0,0,0,221,101.07Z"/><path class="cls-2" d="M205.62,101.07a59.1,59.1,0,0,1-46.9,58l-4.05-19.16a40.7,40.7,0,0,0,31.92-38.87c0-.69,0-1.37,0-2.07a40.48,40.48,0,0,0-16.75-31.35h0a40.09,40.09,0,0,0-25.07-7.71l1.4,40.44L127.52,88.27l-15.3-9.94a40.28,40.28,0,0,0,6.85,52L106,144.43A59.3,59.3,0,0,1,180.44,52.5a58.84,58.84,0,0,1,25.18,48.57Z"/><path class="cls-3" d="M168.36,99.63c0,.49,0,1,0,1.44a22.33,22.33,0,0,1-17.48,21,21.56,21.56,0,0,1-4,.51,22.22,22.22,0,0,1-19.39-34.32l18.63,12.11-.76-22.21a22.37,22.37,0,0,1,23,21.46Z"/><path class="cls-4" d="M0,221.39H15.57c8.24,0,12,4.26,12,9.76,0,6.51-4.47,10.14-11.83,10.14H4.7v13.26H0Zm4.7,16H15.06c4.56,0,7.74-1.34,7.74-6.12,0-3.76-2.53-5.9-7.74-5.9H4.7Z"/><path class="cls-4" d="M32.27,237.35c0-2.13,0-4.29-.05-6.42h4.32c.08.7.17,3.18.17,5.32a9.8,9.8,0,0,1,9.56-6v4.25c-5.43-.06-9.56,3.2-9.56,10.15v9.86H32.27Z"/><path class="cls-4" d="M50.93,219.46h4.44v5.34H50.93Zm0,11.47h4.44v23.62H50.93Z"/><path class="cls-4" d="M84,246.51c-1.15,4.27-4.87,8-11.57,8-8.4,0-12.44-5.66-12.44-12.39s4.57-12.53,12.5-12.53,10.93,5.05,11.45,8.19H79.54c-.81-2.2-2.66-4.6-7.08-4.6-5,0-7.89,3.7-7.89,8.86,0,4.93,2.8,8.86,7.91,8.86,3.82,0,5.94-1.76,7.12-4.43Z"/><path class="cls-4" d="M93.16,243.12c.25,4.53,3.3,7.85,8.09,7.85,3.69,0,5.73-1.5,7-3.79h4.44c-1.28,3.51-4.61,7.37-11.68,7.37-8.46,0-12.31-6.18-12.31-12.39,0-7.13,4.75-12.53,12.2-12.53,9,0,12.13,6.56,12.13,12.32,0,.4,0,.71,0,1.17ZM108.4,240c-.2-2.8-1.69-6.88-7.53-6.88-4.84,0-7.21,3-7.62,6.88Z"/><path class="cls-5" d="M117.47,230.24h4.33v-7.1h7.66v7.1H135v5.54h-5.58v10.16c0,2.05.43,3,2.77,3a9.53,9.53,0,0,0,2.06-.15V254a18.78,18.78,0,0,1-4.84.54c-5.93,0-7.65-2.58-7.65-7.28V235.78h-4.33Z"/><path class="cls-5" d="M139.25,237c0-2.18,0-4.37-.05-6.55h7.45c.13.85.22,3.52.22,4.81,1.35-3.17,4.3-5.55,9.3-5.43v6.94c-5.46-.09-9.3,2.1-9.3,9v8.81h-7.62Z"/><path class="cls-5" d="M183.61,247.14c0,3.13.14,6.24.19,6.76h-7.2a15.77,15.77,0,0,1-.28-2.73c-1.3,2.09-4.07,3.38-8.61,3.38-6.59,0-9.26-4-9.26-7.87,0-6.34,5.55-8.09,12.65-8.09h5.06v-.76c0-2-.85-3.53-4.39-3.53-3.3,0-4,1.23-4.34,2.61h-7.62c.2-3,2.3-7.78,11.84-7.78,10.47,0,12,4.93,12,9Zm-7.45-3.73c-.56,0-2.22,0-4.92,0-3.88,0-5.4,1-5.4,2.92,0,1.57,1.26,2.84,4,2.84,4.18,0,6.29-1.91,6.29-5.34Z"/><path class="cls-5" d="M214.47,245.75c-1,4.56-4.9,8.8-12.81,8.8-9.28,0-13.38-5.84-13.38-12.75,0-6.53,4.65-12.67,13.39-12.67,9.56,0,12.35,6.23,12.63,8.9h-7.62c-.46-1.31-1.63-3.19-4.94-3.19-4,0-5.7,2.92-5.7,6.9s1.65,7.06,5.66,7.06c2.75,0,4.16-1,5.14-3.05Z"/><path class="cls-5" d="M226.09,240.85c2.41-2.56,7.26-7.24,10.33-10.41h9l-10.16,9.23,11.21,14.88h-9.22l-7.37-10.63-3.78,3.27v7.36h-7.62V219.8h7.62Z"/><path class="cls-5" d="M252.45,243.69c.2,2.92,2.31,5.19,5.92,5.19,2.88,0,4.24-.88,5.12-2.36h7.62c-1.45,4.27-5.08,8-12.82,8-9.87,0-13.43-6.55-13.43-12.68,0-6.79,4.56-12.74,13.37-12.74,9.39,0,13.17,6.46,13.17,12.74,0,.61,0,1,0,1.82ZM263.67,239c-.15-1.84-1.15-4.55-5.44-4.55-4,0-5.46,2.18-5.69,4.55Z"/><path class="cls-5" d="M275.93,237c0-2.18,0-4.37-.05-6.55h7.45c.13.85.22,3.52.22,4.81,1.35-3.17,4.3-5.55,9.3-5.43v6.94c-5.46-.09-9.3,2.1-9.3,9v8.81h-7.62Z"/></g></svg>