<svg xmlns="http://www.w3.org/2000/svg" viewBox="0 0 199.23 199.98"><defs><style>.cls-1{fill:#6a41cc;}.cls-2{fill:#58f4c2;}.cls-3{fill:#22211d;}</style></defs><title>logo-new</title><g id="OBJECTS"><path class="cls-1" d="M199.23,101.07c0,54.36-44.72,99.08-99.06,99.08S1.08,155.43,1.08,101.07,45.81,2,100.17,2A99.12,99.12,0,0,1,157,19.91L143,39.83C113.1,19,71.08,22.68,45.52,50.06c-28,30-26.33,77.67,3.64,105.63l10.53-11.26,13.12-14.07a40.23,40.23,0,0,0,28.46,10.49,38.84,38.84,0,0,0,7.13-.91l4.06,19.16,3.2,15.09a74.43,74.43,0,0,0,59.09-73.12Z"/><path class="cls-2" d="M159.36,101.07a59.1,59.1,0,0,1-46.9,58l-4.06-19.16a40.69,40.69,0,0,0,31.93-38.87c0-.69,0-1.37,0-2.07a40.52,40.52,0,0,0-16.76-31.35h0a40.07,40.07,0,0,0-25.07-7.71l1.4,40.44L81.25,88.27,66,78.33a40.27,40.27,0,0,0,6.86,52L59.69,144.43A59.3,59.3,0,0,1,134.17,52.5a57.17,57.17,0,0,1,6.46,5.22A59.2,59.2,0,0,1,159.36,101.07Z"/><path class="cls-3" d="M122.09,99.63c0,.49,0,1,0,1.44a22.32,22.32,0,0,1-17.47,21,21.78,21.78,0,0,1-4,.51,22.33,22.33,0,0,1-23-21.45,22.33,22.33,0,0,1,3.58-12.87l18.63,12.11-.75-22.21a22.37,22.37,0,0,1,23,21.46Z"/></g></svg>